<?xml version='1.0' encoding='utf-8'?>
<svg xmlns="http://www.w3.org/2000/svg" width="126.904mm" height="159.919mm" version="1.1" style="shape-rendering:geometricPrecision; text-rendering:geometricPrecision; image-rendering:optimizeQuality; fill-rule:evenodd; clip-rule:evenodd" viewBox="0 0 1667.98 2101.92"> <defs> <style type="text/css">  .str0 {stroke:#373435;stroke-width:11.13;stroke-miterlimit:22.9256} .fil3 {fill:none} .fil1 {fill:#201E1E} .fil2 {fill:black} .fil0 {fill:white}  </style> </defs> <g id="Capa_x0020_1"> <metadata id="CorelCorpID_0Corel-Layer"/> <path class="fil0" d="M656.76 1735.26c6.04,-30.35 5.11,-104.39 6.61,-139.69 2.42,-57.08 36.62,-363.34 47.66,-380.03 10.46,40.31 -6.22,97.33 -7.16,139.12 -0.55,24.62 31.88,93.87 45.14,106.7 21.73,5.21 29.67,-7.31 48.54,4.53 -2.97,3.47 0.25,1.57 -5.89,4.66l-42.4 6.56c-13.53,47.87 -37,101.35 -53.96,150.32 -14.6,42.16 -48.89,138.82 35.59,125.9 20.84,-3.19 35.18,-38.55 44.65,-55.63 36.79,-66.37 72.15,-127.84 101.92,-200.36 12.46,-30.36 2.38,-49.87 -6.69,-80.47 -20.46,-69.03 -49.72,-164.98 -74.27,-228.31 -18.17,-46.86 -43.26,-87.84 -93.44,-107.63 -24.25,-9.56 -132.98,-35.92 -159.78,-36.35 -8.44,2.6 -35.93,72.39 -44.54,90.89 -16.64,35.76 -61.51,329.35 -59.75,348.52l33.3 4.13 3.86 121.31 -89.55 -3.67 0.1 -116.74 31.98 -6.01c6.1,-15.81 -27.92,-199.93 -33.13,-231.72 -13.69,-83.59 -25.86,-144.25 -63.95,-205.62 -23.11,-2.41 -67.82,2.81 -81.32,16.07 -5.8,15.95 -0.16,36.83 -9.1,53.07 -7.58,13.77 -22.55,13.02 -34.26,27.7l-11.1 299.04c-0.19,46.46 8.79,98.49 9.87,147.01 0.36,16.09 0.38,131.33 7.94,145.59 81.61,19.46 364.35,14.07 453.13,1.1z"/> <path class="fil0" d="M1583.77 1051.82c-57.74,-2.88 -24.18,-15 -98.12,20.67 -166.18,80.16 -112.61,54.25 -148.47,118.94 -15.26,27.53 -41.87,56.6 -63.68,71.96 3.13,44.33 41.21,190.66 33.96,218.25 -10.02,12.24 -37.95,31.31 -59.86,36.92 -2.57,-13.52 -5.02,-39.56 -9.55,-51.69 -8.45,-22.61 -17.17,-18.78 -31.38,-35.76 -2.67,-37.85 21,-123.48 9.44,-154.65 -5.99,-16.14 -17.03,-8.9 -47.57,-35.26 -17.02,-14.7 -29.07,-31.55 -44.01,-43.21 -24.1,7.3 -63.23,29.44 -82.73,42.62 -37.33,25.25 -31.41,33.58 -31.25,93.14 0.11,43.06 -7.83,220.46 -0.8,246.91 20.86,1.85 72.58,3.17 90.17,-3.51 0.25,-46.1 -47.54,-227.9 -24.61,-255.98 16.75,32.88 33.02,305.85 37.6,323.97 5.88,23.29 31.99,21.5 64.05,25.07 69.14,7.72 187.18,11.83 248.77,-10.42 8.54,-68.37 1.46,-362.01 23.86,-393.74 12.96,-18.36 115.77,-84.55 150.31,-110.77 12,-9.11 18.37,-15.66 28.75,-23.23 17.85,-13.01 37.69,-29.48 28.96,-63.79l-72.31 -240.84c-14.28,-42.84 -3.49,-50.49 -51.27,-39.91 -68.96,15.28 -54.53,4.78 -23.53,129.45 6.9,27.74 14.4,55.27 21.47,82.69 5.16,20.03 1.05,24.47 19.75,31.7 6.86,2.65 10.52,3.12 17.58,6.7 10.47,5.33 10.84,5.12 14.45,13.75z"/> <path class="fil0" d="M989.68 436.65c21.62,-9.61 27.88,13.06 31.24,-20.58 1.66,-16.61 -0.69,-34.14 4.5,-50.71 72.43,0 55.67,-9.55 55.67,67.82l41.71 0 -0.02 -120.41 58.25 -2.44c0.02,136.14 -11.65,125.5 39.33,124.59 10.33,-26.25 5.01,-168.56 5.01,-207.98l54.84 3.97 3.65 202.26 34.31 3.09c-16.31,13.28 -302.27,11.17 -320.56,5.27 -7.96,-2.57 -4.86,-1.69 -7.94,-4.87zm-22.9 154.28c11.59,-13.05 3.51,-36.39 16.05,-63.02 74.13,-10.53 363.55,-0.35 378.3,-7.79 2.87,-1.45 18.99,-16.29 21.97,-19.67 18.55,-21 15.86,-36.68 16.11,-70.75 0.42,-58.24 0.29,-115.65 0.03,-173.86 -0.64,-140.77 -5.16,-137.39 -208.64,-137.35 -113.94,0.02 -230.39,-2.37 -344.02,0.22 11.68,58.62 22.25,123.38 -4.37,178.33 -15,30.97 -42.42,64.63 -69.63,83.12 -11.58,7.87 -22.88,11.74 -26.72,25.71 -6.68,24.29 -0.22,70.52 10.88,89.22 14.73,24.82 40.72,25.85 72.28,27.3 55.85,2.56 62.46,-8.9 86.51,15.49 16.17,16.4 37.99,33.28 51.24,53.05z"/> <path class="fil1" d="M659.15 1783.09c9.38,20.15 15.91,58.27 12.31,85.62 -19.21,-0.67 -32.86,-25.71 -40.85,-40.8 -14.53,-27.46 -3.81,-49.39 28.54,-44.82zm-471.33 84.28c4.5,-72.96 0.47,-85.09 25.66,-85.33 28.52,-0.28 30.9,15.94 22.35,40.26 -6.62,18.82 -27.15,48.95 -48.01,45.08zm486.53 -115.05c83.19,15.92 -7.12,85.17 62.66,90.72 -13.08,7.2 -30.24,15.52 -47.65,12.81 -10.28,-27.58 -12.17,-70.8 -15.01,-103.53zm-276.81 -157.52c0,-21.99 -4.07,-77.88 2.87,-94.73l61.1 0c6.7,16.85 2.63,72.74 2.8,94.73l-66.77 0zm276.01 52.42c-1.13,-44.09 9.66,-217.51 26.25,-249.04 12.27,16.79 21,36.39 31.15,57.83 10.96,23.14 0.29,37.56 -8.98,63.18 -10.45,28.9 -35.51,108.62 -48.42,128.03zm-16.8 88.03c-88.78,12.97 -371.52,18.36 -453.13,-1.1 -7.55,-14.26 -7.58,-129.5 -7.94,-145.59 -1.08,-48.53 -10.06,-100.56 -9.87,-147.01l11.1 -299.04c11.71,-14.68 26.68,-13.93 34.26,-27.7 8.94,-16.24 3.31,-37.12 9.1,-53.07 13.5,-13.26 58.21,-18.48 81.32,-16.07 38.08,61.37 50.25,122.03 63.95,205.62 5.21,31.79 39.23,215.9 33.13,231.72l-31.98 6.01 -0.1 116.74 89.55 3.67 -3.86 -121.31 -33.3 -4.13c-1.76,-19.17 43.11,-312.76 59.75,-348.52 8.61,-18.49 36.09,-88.29 44.54,-90.89 26.8,0.43 135.53,26.79 159.78,36.35 50.18,19.79 75.26,60.76 93.44,107.63 24.56,63.33 53.81,159.27 74.27,228.31 9.07,30.6 19.15,50.12 6.69,80.47 -29.77,72.53 -65.12,133.99 -101.92,200.36 -9.47,17.07 -23.81,52.44 -44.65,55.63 -84.48,12.92 -50.2,-83.74 -35.59,-125.9 16.96,-48.97 40.43,-102.45 53.96,-150.32l42.4 -6.56c6.14,-3.08 2.92,-1.19 5.89,-4.66 -18.87,-11.84 -26.81,0.68 -48.54,-4.53 -13.26,-12.83 -45.69,-82.08 -45.14,-106.7 0.93,-41.79 17.62,-98.81 7.16,-139.12 -11.03,16.7 -45.23,322.95 -47.66,380.03 -1.5,35.31 -0.57,109.34 -6.61,139.69zm-473.97 -571.63c7.81,38.05 -7.18,203.21 -9.96,254.04 -1.59,29.04 -5.34,95.27 -18.14,118.25 -12.39,22.25 -49.89,47.11 -91.98,31.64 -75.33,-27.67 -44.46,-121.67 -26.86,-196.18 9.5,-40.2 39.71,-196.78 52.51,-220.04 27.2,1.5 73.24,-0.19 94.43,12.29zm245.53 272.3c-10.59,-66.86 -23.09,-137.83 -34.23,-205.81 -3.04,-18.58 -18.47,-86.42 -6.23,-97.33 23.26,-20.72 64.67,-15.94 89.81,-0.71 2.25,15.29 -36.94,283.15 -49.35,303.84zm-303.44 -445.19c4.62,-26.1 11.35,-29.68 10.67,-29.91l-1.14 2.99c11.8,7.86 11.14,31.76 16.55,46.55 23.46,7.02 55.92,-4.9 67.95,12.56 11.18,14.68 18.35,82.5 -11.14,96.18 -43.22,20.04 -14.12,17.67 -38.3,24.28 -13.46,3.68 -41.34,0.73 -55.95,-1.39l-1.08 -27.3 12.45 -123.96zm380.73 26.31c9.3,3.7 11.7,7.53 18.19,14.19 -1.74,26.63 -19.49,71.1 -32.63,85.62 -19.64,2.12 -31.79,-8.59 -48.7,-11.8l63.14 -88.01zm-146.04 2.39c6,5.98 21.37,35.59 28.91,45.34 10.2,13.19 22.65,26.2 32.04,42.34l-47.04 11.45c-12.91,-13.16 -19.91,-32.63 -26.33,-53.66 -6.22,-20.36 -16.55,-45.63 12.42,-45.47zm68.48 79.2c-19.82,-40.31 -71.21,-62.99 -52.46,-138.57 17.51,-2.85 34.82,7.3 53.66,7.85 25.04,0.72 39.49,-8.32 53.91,-8.64 9.06,31.04 11.19,60.81 -7.19,84.13 -12.59,15.98 -32.58,45.28 -47.93,55.24zm-112.9 -303.84c0,-45.73 61.52,-44.12 80.3,-50.65 29.46,-10.25 49.89,-46.13 60.15,-72.66 18.35,2.67 47.47,17.62 61.22,25.36 20.5,11.54 27.31,23.07 27.31,52.75 0,47.23 0.81,106.99 -19.98,147.38 -27.5,53.44 -110.76,95.9 -177.13,14.81 -23.45,-28.65 -31.86,-72.59 -31.86,-116.99zm-19.78 -26.45c-9.94,-15.79 -9.38,-54.82 -6.48,-76.64 4.03,-30.33 11.38,-38.36 28.51,-53.91 10.91,-9.9 11.38,-12.47 24.09,-21.06 8.24,-5.57 15.55,-10.85 25.58,-15.87 45.23,-22.63 93.11,-24.19 127.3,13.82 13.1,14.57 5.05,16.71 19.71,22.42 14.13,5.51 37.96,-2.36 53.95,32.45 5.25,11.42 6.89,21.97 7.93,34.67 1.34,16.31 2.43,60.51 -11.25,73.45 -11.7,-22.45 -0.26,-50.95 -12.47,-70.93 -11.72,-19.19 -29.81,-17.4 -54.28,-26.84l9.22 -31.94c-21.03,4.5 -9.37,5.97 -22.24,10.85 -11.91,4.52 -9.46,-2.2 -23.94,0.3 -39.12,6.74 -15.35,67.27 -100.66,81.1 7.05,-19.08 32.29,-43.82 24.89,-65.78 -19.39,2.35 -44.83,82.66 -89.87,93.9zm288.89 5.59c0,-62.23 29.68,-114.1 -49.83,-147.33 -30.4,-12.71 -42.85,-41.98 -70.06,-48.66 -49.63,-12.18 -95.1,2.38 -128.23,26.33 -91.93,66.46 -49.4,105.15 -61,179.86 -4.03,25.96 -11.21,34.61 2.81,60.64 9.76,18.12 21.84,24.14 32.68,37.15 25.38,30.46 12.96,23.03 46.46,58.04 7.95,8.3 6.77,10.8 6.84,25.61 0.35,73.05 -117.59,76.67 -123.67,73.46 -10.24,-9.1 -9.2,-17.15 -14.17,-29.72 -17.65,-3.81 -56.04,-2.79 -64.19,-13.29 -12.39,-15.97 -0.28,-37.56 -28.35,-46.87 -39.85,28.69 -26.6,154.06 -32.11,171.94 -7.23,23.48 -12.39,8.97 -22.22,30.05 -13.55,29.07 -53.79,217.7 -63.1,257.08 -17.1,72.36 -33.75,120.92 24.13,161.6 24.73,17.38 61.63,17.14 88.81,3.09 16.01,-8.27 31.64,-25.85 40.71,-39.8 3.82,-5.88 4.51,-8.08 8.98,-13.23 11.01,14.74 7.22,150.78 7.22,175.49 0,108.78 -29.29,325.66 -15.49,406.54 5.11,-4.05 3.65,-1.17 6.75,-8.45l4.01 -85.2c6.44,-158.79 7.49,-100.36 48.31,-151.01 14.52,-18.02 25.7,-39.53 28.94,-68.66l135.08 10.54c2.37,4.02 1.07,-0.1 3.1,8.05l2.24 136.16c-11.93,4.11 -16.5,3.16 -26.24,9.61l36.69 5.56c4.34,20.06 -2.53,49.3 -5.62,70.05 -2.77,18.67 -9.75,49.52 -4.07,65.63 0.29,0.82 1.4,3.34 1.64,2.83 0.24,-0.52 1.08,1.94 1.83,2.74 14.34,-42.15 11.06,-102.9 26.22,-142.56 21.03,-1.44 24.73,-0.5 28.64,17.9l10.07 87.38c1.6,11.79 2.65,27.21 10.26,36.5 4.11,-25.49 -0.18,-55.43 -2.65,-80.81 -1.21,-12.43 -2.76,-25.29 -4.61,-37.62 -0.28,-1.83 -2.48,-16.59 -2.87,-17.97 -8.12,-29.33 -27.66,-9.3 -50.85,-16.87 0,-58.51 2.13,-38.38 22.96,-72.48 16.28,-26.66 2.34,-53.28 12.02,-77.62 27.06,0 54.1,0.38 81.09,-0.68 14.15,-0.56 27.46,-0.98 41.6,-2.48 62.61,-6.65 13.09,9.83 60.44,68.59 26.4,32.75 38.76,13.09 41.68,56.1 2.04,29.95 2.48,61.57 2.82,91.63 0.18,16.1 0.88,32.19 1.74,48.26 0.55,10.28 0.25,26.53 4.17,35.61 2.94,6.83 1.21,3.29 5.45,7.66 4.4,-66.81 -2.36,-167.08 -4.91,-234.84 31.39,0 55.98,-0.06 58.01,-33.66 -22.79,-2.2 -26.05,-1.08 -23.16,-25.32 2.98,-25.03 1.07,-25.32 17.39,-38.01 24.11,-18.77 104.2,-172.37 121.81,-205.49 40.52,-76.22 43.17,-75.7 16.02,-165.04 -16.49,-54.26 -34.53,-108.5 -52.86,-162.83 -60.07,-178.04 -83.89,-152.7 -241.75,-197.12 -69.62,-19.59 -111.71,-57.87 -62.88,-115.22 88.65,-104.13 65.26,-73.98 65.26,-148.86z"/> <path class="fil1" d="M907.22 1596.37l196.23 0c1.08,23.21 -2.52,41.73 -0.64,68.61 1.22,17.49 -10.3,38.45 -16.2,55.5 -15.62,45.2 -17.37,75.3 -23.86,121.48 -12.16,1.41 -30.09,1.11 -41.87,3.11 -42.09,7.18 4.21,12.96 -115.72,12.96l2.05 -261.65zm311.99 -164.46c2.36,-24.38 3.5,-49.85 5.17,-74.35 2.48,-36.39 0.8,-54.29 18.42,-56.75 14.61,13.04 20.43,119.68 17.92,148.5 -13.49,3.31 -27.7,-12.34 -41.51,-17.4zm-73.82 -241.54c29.14,-26.93 69.17,47.58 81.36,68.25 -23.48,-0.27 -77.59,-41.51 -81.36,-68.25zm36.64 -85.6c18.55,2.55 33.81,10.32 54.03,8.08 16.83,-1.86 31.24,-12.72 46.59,-14.5 20.34,94.49 -13.38,104.37 -35.34,152.74 -12.95,-5.37 -20.53,-16.35 -29.52,-27.8 -39.16,-49.87 -35.76,-59.15 -35.76,-118.52zm122 41.48c-5.69,-39.12 -12.08,-50.35 9.52,-79.07 29.7,-39.5 22.84,-50.73 44.2,-56.41l9.4 100.71c-8.19,7.11 -18.02,13.25 -29.84,21 -8.61,5.64 -23.2,17.4 -33.28,13.77zm-179.48 51.74c14.94,11.66 26.99,28.51 44.01,43.21 30.53,26.37 41.58,19.13 47.57,35.26 11.56,31.17 -12.11,116.8 -9.44,154.65 14.21,16.98 22.93,13.15 31.38,35.76 4.53,12.13 6.98,38.17 9.55,51.69 21.91,-5.6 49.84,-24.68 59.86,-36.92 7.25,-27.58 -30.82,-173.92 -33.96,-218.25 21.81,-15.37 48.42,-44.43 63.68,-71.96 35.86,-64.69 -17.72,-38.78 148.47,-118.94 73.94,-35.67 40.38,-23.55 98.12,-20.67 -3.62,-8.63 -3.98,-8.42 -14.45,-13.75 -7.06,-3.59 -10.71,-4.05 -17.58,-6.7 -18.71,-7.23 -14.59,-11.67 -19.75,-31.7 -7.07,-27.42 -14.57,-54.95 -21.47,-82.69 -31,-124.67 -45.43,-114.18 23.53,-129.45 47.78,-10.58 36.99,-2.93 51.27,39.91l72.31 240.84c8.73,34.3 -11.11,50.77 -28.96,63.79 -10.39,7.57 -16.76,14.12 -28.75,23.23 -34.54,26.22 -137.36,92.42 -150.31,110.77 -22.4,31.73 -15.32,325.37 -23.86,393.74 -61.59,22.25 -179.62,18.13 -248.77,10.42 -32.06,-3.58 -58.17,-1.78 -64.05,-25.07 -4.58,-18.12 -20.85,-291.1 -37.6,-323.97 -22.94,28.08 24.86,209.88 24.61,255.98 -17.59,6.68 -69.32,5.36 -90.17,3.51 -7.03,-26.45 0.91,-203.85 0.8,-246.91 -0.16,-59.56 -6.08,-67.89 31.25,-93.14 19.5,-13.19 58.63,-35.32 82.73,-42.62zm-112.1 21.01c4.07,-12.37 37.39,-37.76 41.15,-81.29 3.05,-35.33 2.1,-84.49 0.69,-120.38 -1.57,-39.89 -0.87,-83.22 4.01,-122.73 12.17,-98.53 115.35,-162.02 218.87,-126.94 67.98,23.03 98.28,101.61 86.77,151.27 -21.51,2.9 -26.36,-1.77 -41.28,-12.93 -70.44,-52.7 -60.53,-76.26 -79.89,-88.04 -0.5,0.74 -12.62,-2.04 1.76,23.21 28.58,50.2 85.02,84.98 89.41,97.88 4.56,13.42 -4.11,93.4 -29.03,119.69 -53.07,56 -109.03,54.9 -161.23,-1.36 -17.79,-19.17 -32.49,-52.52 -32.45,-88.79 0.02,-24.54 6.58,-30.27 19.03,-42.86 21.25,-21.49 71.41,-80.97 77.16,-109.24 -26.26,8.34 -28.3,37.37 -69.8,81.74 -10.76,11.51 -22.01,26.41 -39.03,33.62 -77.42,32.81 1.68,97.03 31.78,128.32 33.84,35.19 37.22,39.78 37.22,106.68 -2.01,1.36 -2.43,1.8 -7.08,4.17l-35.29 13.55c-48.73,17.13 -96.31,53.68 -112.79,34.44zm511.18 -504.97c-4.42,-10.97 -11.04,-24.49 -5.11,-39.9 28.5,-5.13 35.57,29.27 32.17,57.65 -4.3,35.91 -3.94,41.79 -39.04,50.08 -15.88,3.75 -25.47,1.66 -33.68,-6.62 -12.96,-13.07 -85.6,-103.08 -15.61,-96.02 -4.91,21.68 -1.53,-3.36 -12.01,18.2 12.39,11.65 21.26,9.03 31.85,21.37 14.53,16.93 4.94,20.38 21.36,28.88l8.84 -16.92c0,-0 45.59,-8.39 22.45,-40.81 -11.71,7.39 -1.95,16.62 -11.23,24.08zm-78.18 706.57c2.22,-45.85 -2.42,-136.75 24.14,-158.88 24.45,-20.38 77.11,-53.06 106.24,-74.59 5.98,-4.42 12.3,-8.46 18.57,-12.78l51.92 -38.58c29.71,-20.11 22.9,-53.73 14.38,-94.33l-70.24 -235.73c-19.22,-58.22 -6.92,-30.69 -20.59,-38.13 -7.07,-3.84 -1.85,12.74 -8.2,-8.58l-1.67 -44.38c-0.84,-19.87 -5.37,-32.6 -15.65,-44 -13.8,-15.3 -20.26,-12.81 -41.17,-21.81 -18.34,-7.89 -25.68,-14.81 -46.94,-14.48 -4.3,6.27 -7.25,12.75 -11.66,21.92 -6.21,12.89 -3.83,9.02 -14.52,19.8 -35.75,36.07 33.3,69.18 43.99,137.35 9.2,58.67 50.44,170.75 48.67,221.34l-141.91 77.03c-2.91,-52.89 -7.9,-90.85 -6.29,-146.57 1.16,-40.32 2.26,-104.43 -12.45,-139.92 -25.51,-61.57 -127.89,-103.66 -215.08,-64.16 -208.78,94.58 -18.1,361.42 -153.45,452.05 9.72,20.98 11.3,12.44 24.61,25.35 -7.58,24.85 -19.97,32.55 -22.73,67.36 -5.31,66.81 1.84,203.22 1.84,276.1l-81.41 1.44c-7.17,0.8 -6.18,0.44 -11.63,2.67 -5.55,2.27 -3.75,1.78 -7.51,4.99 -7.51,24.84 -5.35,242.27 -1.34,277.89 22.07,0.04 45.17,1.52 67.4,2.25 38,1.25 29.05,2.78 47.1,23.91l41.69 -0.35c27.82,35.22 -4.65,138.67 12.31,181.78 12.04,-65.57 6.61,-148.67 10.93,-217.27 3.57,-56.8 15.07,-142.55 43.88,-179.43 20.1,-4.94 125.48,4.19 155.42,4.55 174.18,2.09 150.12,-32.91 176.05,32.81 6,15.2 10.26,28.01 14.34,44.53 7.96,32.24 7.99,77.03 10.02,110.95 2.47,41.19 2.9,202.02 14.65,226.59 5.86,-72.53 -0.62,-165.24 -3.49,-238.44 -1.39,-35.4 -5.75,-75.84 -12.96,-109.8 -7.24,-34.09 -23.41,-60.09 -28.32,-92.87 -9.7,-64.8 -2.18,-170.01 1.1,-237.53z"/> <path class="fil0" d="M618.6 120.65c5.65,-15.68 -8.52,-37.84 66.08,-25.69l1.74 26.99c19.93,-7.81 17.43,-23.68 38.74,-6.02 12,9.94 20.43,16.52 26.79,32.12 -6.5,14.24 -8.89,6.76 -13.41,25.89l28.72 4.32c13.3,75.44 -10.77,60.19 -28.03,64.33 1.35,15.63 7.21,11.51 12.72,27.17 -5.83,11.3 -26.74,33.08 -37.71,38.46 -15.64,-3.19 -12.61,-8.62 -27.38,-14.12 -1.45,31.66 -0.11,30.25 -35.28,29.86 -41,-0.46 -20.67,-4.43 -34.69,-27.03 -27.67,2.13 -15.38,29.34 -47.47,-4.04 -22.34,-23.24 -15.84,-18.22 -6.32,-47.47 -11.88,-11.64 -31.94,2.36 -31.01,-38.3 0.77,-33.89 19.7,-21.94 31.45,-38.2 -4.92,-16.29 -21.21,-11.32 -2.54,-34.89 32.32,-40.8 32.1,-17.85 57.61,-13.37zm-80.61 325.55c27.37,-13.93 31.21,-42.61 57.56,-43.67 59.38,-2.38 145.54,28.75 224.12,-86.57 57.35,-84.16 39.69,-224.68 -79.31,-284.57 -203.74,-102.52 -398.33,165.67 -214.15,332.55 28.02,25.39 15.47,40.43 11.79,82.25z"/> <path class="fil0" d="M1180.19 1024.31c27.21,-4.89 122.1,-31.69 87.24,27.5 -7.41,12.58 -47.6,33.14 -77.34,0.82 -9.74,-10.58 -9.25,-9.77 -9.9,-28.33zm-167.75 194.7c16.48,19.25 64.06,-17.31 112.79,-34.44l35.29 -13.55c4.64,-2.37 5.07,-2.81 7.08,-4.17 0,-66.9 -3.38,-71.49 -37.22,-106.68 -30.1,-31.29 -109.2,-95.51 -31.78,-128.32 17.02,-7.21 28.27,-22.12 39.03,-33.62 41.49,-44.37 43.53,-73.4 69.8,-81.74 -5.75,28.27 -55.91,87.74 -77.16,109.24 -12.45,12.59 -19.01,18.32 -19.03,42.86 -0.04,36.27 14.66,69.62 32.45,88.79 52.2,56.26 108.16,57.35 161.23,1.36 24.92,-26.29 33.59,-106.28 29.03,-119.69 -4.39,-12.9 -60.83,-47.68 -89.41,-97.88 -14.38,-25.25 -2.26,-22.47 -1.76,-23.21 19.36,11.79 9.45,35.34 79.89,88.04 14.92,11.16 19.77,15.83 41.28,12.93 11.51,-49.66 -18.8,-128.23 -86.77,-151.27 -103.52,-35.08 -206.7,28.41 -218.87,126.94 -4.88,39.52 -5.58,82.84 -4.01,122.73 1.42,35.89 2.36,85.05 -0.69,120.38 -3.76,43.53 -37.08,68.92 -41.15,81.29z"/> <path class="fil0" d="M182.78 1163.63c-21.19,-12.49 -67.23,-10.79 -94.43,-12.29 -12.8,23.27 -43.01,179.85 -52.51,220.04 -17.6,74.51 -48.47,168.51 26.86,196.18 42.09,15.46 79.59,-9.4 91.98,-31.64 12.8,-22.98 16.55,-89.21 18.14,-118.25 2.78,-50.82 17.77,-215.99 9.96,-254.04z"/> <path class="fil0" d="M315.15 794.8c0,44.4 8.41,88.33 31.86,116.99 66.38,81.09 149.63,38.63 177.13,-14.81 20.78,-40.39 19.98,-100.15 19.98,-147.38 0,-29.68 -6.81,-41.21 -27.31,-52.75 -13.75,-7.74 -42.87,-22.69 -61.22,-25.36 -10.26,26.53 -30.68,62.41 -60.15,72.66 -18.78,6.54 -80.3,4.92 -80.3,50.65z"/> <path class="fil0" d="M905.17 1858.03c119.92,0 73.62,-5.78 115.72,-12.96 11.78,-2.01 29.7,-1.7 41.87,-3.11 6.49,-46.17 8.24,-76.28 23.86,-121.48 5.89,-17.05 17.42,-38 16.2,-55.5 -1.88,-26.88 1.72,-45.4 0.64,-68.61l-196.23 0 -2.05 261.65z"/> <path class="fil2" d="M537.99 446.2c3.68,-41.83 16.23,-56.87 -11.79,-82.25 -184.18,-166.88 10.41,-435.07 214.15,-332.55 119.01,59.88 136.67,200.4 79.31,284.57 -78.58,115.31 -164.74,84.18 -224.12,86.57 -26.35,1.06 -30.19,29.74 -57.56,43.67zm428.79 144.73c-13.24,-19.78 -35.07,-36.66 -51.24,-53.05 -24.04,-24.38 -30.66,-12.93 -86.51,-15.49 -31.57,-1.45 -57.55,-2.47 -72.28,-27.3 -11.1,-18.7 -17.57,-64.93 -10.88,-89.22 3.84,-13.97 15.15,-17.84 26.72,-25.71 27.21,-18.49 54.63,-52.15 69.63,-83.12 26.62,-54.96 16.05,-119.71 4.37,-178.33 113.63,-2.59 230.08,-0.19 344.02,-0.22 203.48,-0.04 208,-3.43 208.64,137.35 0.26,58.21 0.39,115.61 -0.03,173.86 -0.25,34.07 2.44,49.75 -16.11,70.75 -2.99,3.38 -19.11,18.23 -21.97,19.67 -14.75,7.44 -304.17,-2.74 -378.3,7.79 -12.54,26.63 -4.46,49.98 -16.05,63.02zm-429.56 -202.96c-0.92,12.68 -3.91,23.84 -6.4,35.74 -8.88,42.5 -2.36,43.68 33.76,12.75 19.76,-16.92 9.4,-20.3 45.2,-19.93 93.36,0.97 68.34,-5.93 117.71,-10.53 8.3,31.32 3.91,67.02 20.88,93.83 29.16,46.06 103.55,32.67 143.08,35.72 15.66,1.21 23.92,14.08 33.61,24.08 15.18,15.63 42.46,50.28 60.39,58.48l3.19 -82.37c97.37,0 200.78,2.65 296.16,-0.71 45.75,-1.61 93.73,-2.49 112.94,-37.33 21.63,-39.22 15.01,-229.43 13.58,-282.89 -1.22,-45.81 -11.51,-84.94 -53.26,-95.3 -79.06,-19.61 -462.3,0.4 -513.81,-11.55 -22.05,-5.11 -2.22,-4.42 -37.42,-38.62 -21.56,-20.95 -51.53,-49.13 -89.36,-60.14 -139.99,-40.72 -263.25,60.85 -271.15,166.58 -8.92,119.36 25.33,142.7 90.89,212.2z"/> <path class="fil0" d="M295.36 768.34c45.04,-11.24 70.48,-91.55 89.87,-93.9 7.4,21.96 -17.84,46.7 -24.89,65.78 85.32,-13.83 61.54,-74.37 100.66,-81.1 14.48,-2.49 12.03,4.22 23.94,-0.3 12.87,-4.88 1.21,-6.35 22.24,-10.85l-9.22 31.94c24.46,9.43 42.55,7.65 54.28,26.84 12.21,19.98 0.77,48.48 12.47,70.93 13.68,-12.94 12.59,-57.14 11.25,-73.45 -1.04,-12.7 -2.69,-23.25 -7.93,-34.67 -16,-34.81 -39.83,-26.94 -53.95,-32.45 -14.66,-5.72 -6.61,-7.85 -19.71,-22.42 -34.19,-38.02 -82.07,-36.45 -127.3,-13.82 -10.03,5.02 -17.35,10.3 -25.58,15.87 -12.72,8.59 -13.19,11.16 -24.09,21.06 -17.13,15.55 -24.48,23.58 -28.51,53.91 -2.9,21.82 -3.46,60.85 6.48,76.64z"/> <path class="fil0" d="M642.29 164.78c25.6,-7.24 50.61,11.22 55.21,32.25 6.67,30.49 -14.11,53 -37.02,57.42 -55.02,10.62 -84.55,-70.9 -18.19,-89.66zm84.77 7.61c3.38,-20.3 22.43,-15.09 -12.82,-52.16 -19.87,2.86 -6.76,11.47 -35.86,6.95 -10.96,-20.31 -10.98,-31.34 -45.42,-25.43 -13.92,40.11 -6.65,30.6 -40.42,21.51 -44.17,26.18 -15.35,32 -17.39,56.5 -16.09,8.72 -31.78,6.95 -30.13,30.34 1.88,26.58 27.14,14.02 30.14,32.34 2.62,15.98 -23.35,20.53 4.75,43.69 19.36,15.96 14.77,-3.07 44.8,0.97 6.9,15.68 2.05,33.93 29.26,29.89 18.81,-2.79 19.61,-18.74 27.88,-30.11 25.66,-1.45 15.95,10.67 34.27,5.92 36.46,-9.46 4.7,-39.55 15.39,-54 3.64,-4.93 17.74,-10.51 23.38,-14.51 7.8,-45.65 -7.61,-24.32 -27.82,-51.93z"/> <path class="fil0" d="M428.31 1435.93c12.41,-20.7 51.6,-288.55 49.35,-303.84 -25.14,-15.24 -66.55,-20.01 -89.81,0.71 -12.24,10.91 3.18,78.75 6.23,97.33 11.14,67.98 23.64,138.95 34.23,205.81z"/> <path class="fil0" d="M112.42 1114.7l1.08 27.3c14.62,2.12 42.49,5.07 55.95,1.39 24.18,-6.62 -4.92,-4.24 38.3,-24.28 29.49,-13.68 22.32,-81.5 11.14,-96.18 -12.03,-17.46 -44.49,-5.54 -67.95,-12.56 -5.41,-14.79 -4.76,-38.69 -16.55,-46.55l1.14 -2.99c0.68,0.23 -6.05,3.82 -10.67,29.91l-12.45 123.96z"/> <path class="fil2" d="M1234.05 240.18l36.35 -0 0.17 193 -38.33 0 1.81 -193zm-164.71 136.49c1.74,12.31 2.6,36.97 -1.31,48.72 -4.42,13.28 -25.71,17.61 -32.63,6.6 -2.98,-4.74 -3.08,-41.52 -1.26,-47.49 4.33,-14.23 20.13,-10.09 35.2,-7.83zm100.82 59.11c-43.14,3.15 -41.64,1.95 -41.27,-40.84 0.2,-23.42 -0.43,-50.84 6.94,-72.48l32.84 0.51c8.22,21.83 5.14,88.09 1.49,112.81zm-180.48 0.87c3.08,3.19 -0.03,2.31 7.94,4.87 18.29,5.9 304.24,8.01 320.56,-5.27l-34.31 -3.09 -3.65 -202.26 -54.84 -3.97c0,39.41 5.32,181.72 -5.01,207.98 -50.98,0.91 -39.31,11.54 -39.33,-124.59l-58.25 2.44 0.02 120.41 -41.71 0c0,-77.37 16.76,-67.82 -55.67,-67.82 -5.19,16.58 -2.84,34.11 -4.5,50.71 -3.36,33.64 -9.62,10.98 -31.24,20.58z"/> <path class="fil0" d="M428.05 1098.64c15.35,-9.96 35.34,-39.27 47.93,-55.24 18.37,-23.32 16.25,-53.09 7.19,-84.13 -14.42,0.32 -28.87,9.36 -53.91,8.64 -18.85,-0.54 -36.16,-10.69 -53.66,-7.85 -18.75,75.58 32.63,98.26 52.46,138.57z"/> <path class="fil0" d="M1182.02 1104.78c0,59.37 -3.4,68.65 35.76,118.52 8.99,11.45 16.58,22.43 29.52,27.8 21.96,-48.38 55.68,-58.26 35.34,-152.74 -15.35,1.78 -29.76,12.64 -46.59,14.5 -20.23,2.24 -35.48,-5.53 -54.03,-8.08z"/> <path class="fil2" d="M727.06 172.39c20.21,27.6 35.62,6.28 27.82,51.93 -5.64,4 -19.74,9.58 -23.38,14.51 -10.69,14.45 21.08,44.55 -15.39,54 -18.32,4.75 -8.6,-7.37 -34.27,-5.92 -8.27,11.37 -9.07,27.32 -27.88,30.11 -27.2,4.04 -22.35,-14.21 -29.26,-29.89 -30.03,-4.04 -25.45,14.98 -44.8,-0.97 -28.1,-23.17 -2.13,-27.71 -4.75,-43.69 -3,-18.32 -28.26,-5.76 -30.14,-32.34 -1.65,-23.39 14.04,-21.62 30.13,-30.34 2.03,-24.5 -26.79,-30.32 17.39,-56.5 33.77,9.08 26.5,18.59 40.42,-21.51 34.44,-5.92 34.46,5.11 45.42,25.43 29.09,4.52 15.99,-4.09 35.86,-6.95 35.25,37.07 16.2,31.86 12.82,52.16zm-108.46 -51.74c-25.51,-4.47 -25.29,-27.43 -57.61,13.37 -18.67,23.57 -2.38,18.6 2.54,34.89 -11.75,16.27 -30.68,4.32 -31.45,38.2 -0.92,40.66 19.13,26.66 31.01,38.3 -9.52,29.25 -16.02,24.23 6.32,47.47 32.08,33.38 19.8,6.16 47.47,4.04 14.02,22.6 -6.31,26.57 34.69,27.03 35.18,0.4 33.83,1.81 35.28,-29.86 14.77,5.5 11.74,10.93 27.38,14.12 10.97,-5.38 31.88,-27.15 37.71,-38.46 -5.51,-15.66 -11.37,-11.54 -12.72,-27.17 17.26,-4.13 41.33,11.12 28.03,-64.33l-28.72 -4.32c4.51,-19.12 6.91,-11.64 13.41,-25.89 -6.37,-15.6 -14.79,-22.17 -26.79,-32.12 -21.31,-17.65 -18.81,-1.79 -38.74,6.02l-1.74 -26.99c-74.59,-12.16 -60.42,10 -66.08,25.69z"/> <path class="fil0" d="M673.56 1647.23c12.91,-19.41 37.97,-99.13 48.42,-128.03 9.27,-25.62 19.94,-40.04 8.98,-63.18 -10.15,-21.44 -18.88,-41.04 -31.15,-57.83 -16.59,31.53 -27.39,204.95 -26.25,249.04z"/> <polygon class="fil0" points="1232.25,433.17 1270.58,433.17 1270.41,240.17 1234.05,240.18 "/> <path class="fil0" d="M1523.61 714.04c9.28,-7.46 -0.48,-16.69 11.23,-24.08 23.13,32.42 -22.45,40.8 -22.45,40.81l-8.84 16.92c-16.42,-8.5 -6.82,-11.95 -21.36,-28.88 -10.59,-12.34 -19.46,-9.71 -31.85,-21.37 10.48,-21.56 7.1,3.48 12.01,-18.2 -70,-7.07 2.65,82.94 15.61,96.02 8.21,8.28 17.8,10.37 33.68,6.62 35.1,-8.29 34.74,-14.17 39.04,-50.08 3.4,-28.38 -3.67,-62.77 -32.17,-57.65 -5.93,15.4 0.68,28.93 5.11,39.9z"/> <path class="fil0" d="M397.55 1594.81l66.77 0c-0.17,-21.99 3.91,-77.88 -2.8,-94.73l-61.1 0c-6.95,16.85 -2.87,72.74 -2.87,94.73z"/> <path class="fil0" d="M1304.02 1146.26c10.08,3.64 24.67,-8.12 33.28,-13.77 11.83,-7.75 21.66,-13.89 29.84,-21l-9.4 -100.71c-21.35,5.68 -14.5,16.91 -44.2,56.41 -21.6,28.73 -15.21,39.95 -9.52,79.07z"/> <path class="fil0" d="M1170.16 435.78c3.65,-24.72 6.73,-90.98 -1.49,-112.81l-32.84 -0.51c-7.36,21.64 -6.74,49.06 -6.94,72.48 -0.37,42.78 -1.87,43.99 41.27,40.84z"/> <path class="fil0" d="M1219.2 1431.92c13.81,5.07 28.02,20.72 41.51,17.4 2.51,-28.82 -3.31,-135.46 -17.92,-148.5 -17.62,2.47 -15.94,20.37 -18.42,56.75 -1.67,24.5 -2.82,49.97 -5.17,74.35z"/> <path class="fil1" d="M1180.19 1024.31c0.65,18.56 0.16,17.75 9.9,28.33 29.74,32.32 69.93,11.76 77.34,-0.82 34.86,-59.19 -60.03,-32.39 -87.24,-27.5z"/> <path class="fil0" d="M442.47 1105.06c16.91,3.21 29.05,13.92 48.7,11.8 13.14,-14.52 30.9,-58.98 32.63,-85.62 -6.5,-6.66 -8.9,-10.49 -18.19,-14.19l-63.14 88.01z"/> <path class="fil0" d="M639.24 175.86c-14.23,8.07 -31.27,18.8 -20.77,46.88 4.62,12.36 26.52,29.26 47.74,20.01 13.12,-5.72 23.92,-25.88 16.88,-45.65 -5.26,-14.78 -24.29,-32.33 -43.85,-21.23z"/> <path class="fil0" d="M373.48 1118.57l47.04 -11.45c-9.4,-16.14 -21.84,-29.15 -32.04,-42.34 -7.54,-9.76 -22.91,-39.36 -28.91,-45.34 -28.97,-0.16 -18.64,25.1 -12.42,45.47 6.42,21.03 13.42,40.5 26.33,53.66z"/> <path class="fil0" d="M187.82 1867.38c20.87,3.87 41.39,-26.25 48.01,-45.08 8.55,-24.32 6.17,-40.54 -22.35,-40.26 -25.2,0.25 -21.16,12.37 -25.66,85.33z"/> <path class="fil0" d="M737.01 1843.05c-69.78,-5.55 20.53,-74.81 -62.66,-90.72 2.83,32.73 4.72,75.95 15.01,103.53 17.41,2.71 34.57,-5.61 47.65,-12.81z"/> <path class="fil2" d="M639.24 175.86c19.56,-11.1 38.58,6.45 43.85,21.23 7.04,19.77 -3.76,39.93 -16.88,45.65 -21.22,9.25 -43.12,-7.65 -47.74,-20.01 -10.5,-28.07 6.55,-38.8 20.77,-46.88zm3.04 -11.08c-66.36,18.76 -36.82,100.28 18.19,89.66 22.9,-4.42 43.68,-26.93 37.02,-57.42 -4.6,-21.03 -29.62,-39.48 -55.21,-32.25z"/> <path class="fil0" d="M659.15 1783.09c-32.35,-4.57 -43.07,17.35 -28.54,44.82 7.98,15.09 21.64,40.13 40.85,40.8 3.6,-27.35 -2.93,-65.47 -12.31,-85.62z"/> <path class="fil0" d="M1145.39 1190.38c3.77,26.74 57.88,67.97 81.36,68.25 -12.19,-20.66 -52.21,-95.18 -81.36,-68.25z"/> <path class="fil0" d="M1069.34 376.67c-15.07,-2.26 -30.87,-6.39 -35.2,7.83 -1.82,5.97 -1.72,42.74 1.26,47.49 6.92,11.02 28.21,6.69 32.63,-6.6 3.91,-11.76 3.06,-36.41 1.31,-48.72z"/> <line class="fil3 str0" x1="866.61" y1="429.89" x2="1079.01" y2="235.48"/> <polyline class="fil3 str0" points="1023.69,230.92 1079.01,235.48 1081.32,298.85 "/> </g> </svg>